<?xml version="1.0" standalone="no"?>
<!DOCTYPE svg PUBLIC "-//W3C//DTD SVG 20010904//EN"
 "http://www.w3.org/TR/2001/REC-SVG-20010904/DTD/svg10.dtd">
<svg version="1.0" xmlns="http://www.w3.org/2000/svg"
 width="150.000000pt" height="150.000000pt" viewBox="0 0 223.000000 216.000000"
 preserveAspectRatio="xMidYMid meet">
<metadata>
Created by potrace 1.15, written by Peter Selinger 2001-2017
</metadata>
<g transform="translate(0.000000,216.000000) scale(0.100000,-0.100000)"
fill="#fff" stroke="none">
<path d="M1889 2141 c-200 -78 -369 -324 -590 -861 -39 -96 -73 -177 -75 -179
-2 -2 -34 25 -72 60 -119 113 -287 236 -424 312 -233 129 -487 164 -580 80
-58 -52 -75 -167 -39 -270 77 -225 394 -556 743 -779 40 -26 77 -50 82 -55 11
-10 -71 -127 -138 -197 -123 -129 -293 -205 -424 -189 -144 17 -287 126 -268
203 7 28 24 30 81 9 63 -22 102 -19 121 10 45 69 -64 175 -182 175 -39 0 -51
-5 -80 -34 -30 -30 -34 -40 -34 -87 0 -67 24 -119 83 -185 53 -59 155 -116
235 -133 222 -46 419 47 613 290 39 49 75 89 78 89 4 0 34 -13 67 -29 172 -83
366 -149 505 -173 l68 -12 -6 -73 -6 -73 112 0 111 0 0 64 c0 71 -2 69 75 82
107 18 226 98 264 178 27 55 26 63 -8 80 l-28 15 -24 -50 c-24 -52 -76 -107
-128 -133 -32 -17 -142 -48 -148 -42 -2 2 8 124 22 272 66 702 119 1163 170
1477 14 86 25 161 25 166 0 19 -149 12 -201 -8z m131 -35 c0 -7 -27 -121 -59
-252 -177 -713 -240 -1030 -276 -1398 l-7 -69 -87 169 c-91 178 -189 334 -265
422 l-45 53 20 52 c166 420 251 603 354 758 96 144 195 229 310 265 52 17 55
17 55 0z m-1492 -607 c173 -46 377 -173 594 -372 l85 -78 -34 -92 c-100 -266
-190 -467 -210 -467 -13 0 -236 154 -309 212 -323 260 -515 584 -436 737 45
89 135 106 310 60z m800 -606 c81 -107 124 -178 187 -302 50 -100 115 -262
129 -324 l7 -29 -53 7 c-66 9 -182 39 -268 69 -83 30 -279 116 -285 126 -2 4
19 61 49 126 45 101 116 274 155 377 6 15 13 27 15 27 3 0 32 -35 64 -77z"/>
</g>
</svg>
